<svg width="17" height="16" viewBox="0 0 17 16" fill="none" xmlns="http://www.w3.org/2000/svg">
<path d="M7.75008 12.8666L3.35008 8.46656C3.28341 8.39989 3.23608 8.32767 3.20808 8.24989C3.18053 8.17211 3.16675 8.08878 3.16675 7.99989C3.16675 7.911 3.18053 7.82767 3.20808 7.74989C3.23608 7.67211 3.28341 7.59989 3.35008 7.53323L7.75008 3.13323C7.8723 3.011 8.02497 2.947 8.20808 2.94123C8.39164 2.93589 8.55008 2.99989 8.68341 3.13323C8.81675 3.25545 8.8863 3.40811 8.89208 3.59123C8.89741 3.77478 8.83341 3.93323 8.70008 4.06656L5.43341 7.33323H12.8834C13.0723 7.33323 13.2307 7.397 13.3587 7.52456C13.4863 7.65256 13.5501 7.811 13.5501 7.99989C13.5501 8.18878 13.4863 8.347 13.3587 8.47456C13.2307 8.60256 13.0723 8.66656 12.8834 8.66656H5.43341L8.70008 11.9332C8.8223 12.0554 8.8863 12.211 8.89208 12.3999C8.89741 12.5888 8.83341 12.7443 8.70008 12.8666C8.57786 12.9999 8.4223 13.0666 8.23341 13.0666C8.04453 13.0666 7.88341 12.9999 7.75008 12.8666Z" fill="#1F2122"/>
</svg>
