<svg width="17" height="16" viewBox="0 0 17 16" fill="none" xmlns="http://www.w3.org/2000/svg">
<path d="M6.86642 11.7167C6.77753 11.7167 6.6942 11.7027 6.61642 11.6747C6.53865 11.6472 6.46642 11.6001 6.39976 11.5334L3.53309 8.66672C3.41087 8.5445 3.35242 8.38606 3.35776 8.19139C3.36353 7.99717 3.42753 7.83895 3.54976 7.71672C3.67198 7.5945 3.82753 7.53339 4.01642 7.53339C4.20531 7.53339 4.36087 7.5945 4.48309 7.71672L6.86642 10.1001L12.5164 4.45006C12.6386 4.32783 12.7971 4.26672 12.9918 4.26672C13.186 4.26672 13.3442 4.32783 13.4664 4.45006C13.5886 4.57228 13.6498 4.7305 13.6498 4.92472C13.6498 5.11939 13.5886 5.27783 13.4664 5.40006L7.33309 11.5334C7.26642 11.6001 7.1942 11.6472 7.11642 11.6747C7.03865 11.7027 6.95531 11.7167 6.86642 11.7167Z" fill="#1F2122"/>
</svg>
