<svg width="16" height="16" viewBox="0 0 16 16" fill="none" xmlns="http://www.w3.org/2000/svg">
<path d="M7.99947 9.96649C7.91058 9.96649 7.82725 9.95249 7.74947 9.92449C7.67169 9.89693 7.59947 9.84982 7.53281 9.78315L4.44947 6.69982C4.32725 6.5776 4.26903 6.42471 4.27481 6.24116C4.28014 6.05804 4.34392 5.90538 4.46614 5.78315C4.58836 5.66093 4.74392 5.59982 4.93281 5.59982C5.12169 5.59982 5.27725 5.66093 5.39947 5.78315L7.99947 8.38315L10.6161 5.76649C10.7384 5.64427 10.8913 5.58582 11.0748 5.59115C11.2579 5.59693 11.4106 5.66093 11.5328 5.78315C11.655 5.90538 11.7161 6.06093 11.7161 6.24982C11.7161 6.43871 11.655 6.59427 11.5328 6.71649L8.46614 9.78315C8.39947 9.84982 8.32725 9.89693 8.24947 9.92449C8.17169 9.95249 8.08836 9.96649 7.99947 9.96649Z" fill="#1F2122"/>
</svg>
