<svg width="16" height="16" viewBox="0 0 16 16" fill="none" xmlns="http://www.w3.org/2000/svg">
<path d="M6 12.0002C5.63333 12.0002 5.31956 11.8697 5.05867 11.6088C4.79733 11.3475 4.66667 11.0335 4.66667 10.6668V2.66683C4.66667 2.30016 4.79733 1.98616 5.05867 1.72483C5.31956 1.46394 5.63333 1.3335 6 1.3335H12C12.3667 1.3335 12.6807 1.46394 12.942 1.72483C13.2029 1.98616 13.3333 2.30016 13.3333 2.66683V10.6668C13.3333 11.0335 13.2029 11.3475 12.942 11.6088C12.6807 11.8697 12.3667 12.0002 12 12.0002H6ZM6 10.6668H12V2.66683H6V10.6668ZM3.33333 14.6668C2.96667 14.6668 2.65267 14.5364 2.39133 14.2755C2.13044 14.0142 2 13.7002 2 13.3335V4.66683C2 4.47794 2.064 4.3195 2.192 4.1915C2.31956 4.06394 2.47778 4.00016 2.66667 4.00016C2.85556 4.00016 3.014 4.06394 3.142 4.1915C3.26956 4.3195 3.33333 4.47794 3.33333 4.66683V13.3335H10C10.1889 13.3335 10.3473 13.3975 10.4753 13.5255C10.6029 13.6531 10.6667 13.8113 10.6667 14.0002C10.6667 14.1891 10.6029 14.3473 10.4753 14.4748C10.3473 14.6028 10.1889 14.6668 10 14.6668H3.33333ZM6 2.66683V10.6668V2.66683Z" fill="#1F2122"/>
</svg>
