<svg width="36" height="36" viewBox="0 0 36 36" fill="none" xmlns="http://www.w3.org/2000/svg">
<path d="M18 22.7368C16.4211 22.7368 15.0789 22.1842 13.9737 21.0789C12.8684 19.9737 12.3158 18.6316 12.3158 17.0526V5.68421C12.3158 4.10526 12.8684 2.76316 13.9737 1.65789C15.0789 0.552631 16.4211 0 18 0C19.5789 0 20.9211 0.552631 22.0263 1.65789C23.1316 2.76316 23.6842 4.10526 23.6842 5.68421V17.0526C23.6842 18.6316 23.1316 19.9737 22.0263 21.0789C20.9211 22.1842 19.5789 22.7368 18 22.7368ZM16.1053 36V30.1737C12.821 29.7316 10.1053 28.2632 7.95789 25.7684C5.81052 23.2737 4.73684 20.3684 4.73684 17.0526H8.52631C8.52631 19.6737 9.45 21.9079 11.2974 23.7553C13.1447 25.6026 15.3789 26.5263 18 26.5263C20.621 26.5263 22.8553 25.6026 24.7026 23.7553C26.55 21.9079 27.4737 19.6737 27.4737 17.0526H31.2632C31.2632 20.3684 30.1895 23.2737 28.0421 25.7684C25.8947 28.2632 23.1789 29.7316 19.8947 30.1737V36H16.1053Z" fill="white"/>
</svg>
