<svg width="17" height="16" viewBox="0 0 17 16" fill="none" xmlns="http://www.w3.org/2000/svg">
<path d="M12.5 14.6668C11.9444 14.6668 11.4722 14.4724 11.0833 14.0835C10.6944 13.6946 10.5 13.2224 10.5 12.6668C10.5 12.5891 10.5056 12.5084 10.5167 12.4248C10.5278 12.3417 10.5444 12.2668 10.5667 12.2002L5.86667 9.46683C5.67778 9.6335 5.46667 9.76394 5.23333 9.85816C5 9.95283 4.75556 10.0002 4.5 10.0002C3.94444 10.0002 3.47222 9.80572 3.08333 9.41683C2.69444 9.02794 2.5 8.55572 2.5 8.00016C2.5 7.44461 2.69444 6.97238 3.08333 6.5835C3.47222 6.19461 3.94444 6.00016 4.5 6.00016C4.75556 6.00016 5 6.04727 5.23333 6.1415C5.46667 6.23616 5.67778 6.36683 5.86667 6.5335L10.5667 3.80016C10.5444 3.7335 10.5278 3.65861 10.5167 3.5755C10.5056 3.49194 10.5 3.41127 10.5 3.3335C10.5 2.77794 10.6944 2.30572 11.0833 1.91683C11.4722 1.52794 11.9444 1.3335 12.5 1.3335C13.0556 1.3335 13.5278 1.52794 13.9167 1.91683C14.3056 2.30572 14.5 2.77794 14.5 3.3335C14.5 3.88905 14.3056 4.36127 13.9167 4.75016C13.5278 5.13905 13.0556 5.3335 12.5 5.3335C12.2444 5.3335 12 5.28616 11.7667 5.1915C11.5333 5.09727 11.3222 4.96683 11.1333 4.80016L6.43333 7.5335C6.45556 7.60016 6.47222 7.67505 6.48333 7.75816C6.49444 7.84172 6.5 7.92239 6.5 8.00016C6.5 8.07794 6.49444 8.15839 6.48333 8.2415C6.47222 8.32505 6.45556 8.40016 6.43333 8.46683L11.1333 11.2002C11.3222 11.0335 11.5333 10.9028 11.7667 10.8082C12 10.7139 12.2444 10.6668 12.5 10.6668C13.0556 10.6668 13.5278 10.8613 13.9167 11.2502C14.3056 11.6391 14.5 12.1113 14.5 12.6668C14.5 13.2224 14.3056 13.6946 13.9167 14.0835C13.5278 14.4724 13.0556 14.6668 12.5 14.6668ZM12.5 4.00016C12.6889 4.00016 12.8471 3.93638 12.9747 3.80883C13.1027 3.68083 13.1667 3.52239 13.1667 3.3335C13.1667 3.14461 13.1027 2.98616 12.9747 2.85816C12.8471 2.73061 12.6889 2.66683 12.5 2.66683C12.3111 2.66683 12.1529 2.73061 12.0253 2.85816C11.8973 2.98616 11.8333 3.14461 11.8333 3.3335C11.8333 3.52239 11.8973 3.68083 12.0253 3.80883C12.1529 3.93638 12.3111 4.00016 12.5 4.00016ZM4.5 8.66683C4.68889 8.66683 4.84733 8.60283 4.97533 8.47483C5.10289 8.34727 5.16667 8.18905 5.16667 8.00016C5.16667 7.81127 5.10289 7.65283 4.97533 7.52483C4.84733 7.39727 4.68889 7.3335 4.5 7.3335C4.31111 7.3335 4.15267 7.39727 4.02467 7.52483C3.89711 7.65283 3.83333 7.81127 3.83333 8.00016C3.83333 8.18905 3.89711 8.34727 4.02467 8.47483C4.15267 8.60283 4.31111 8.66683 4.5 8.66683ZM12.5 13.3335C12.6889 13.3335 12.8471 13.2695 12.9747 13.1415C13.1027 13.0139 13.1667 12.8557 13.1667 12.6668C13.1667 12.4779 13.1027 12.3197 12.9747 12.1922C12.8471 12.0642 12.6889 12.0002 12.5 12.0002C12.3111 12.0002 12.1529 12.0642 12.0253 12.1922C11.8973 12.3197 11.8333 12.4779 11.8333 12.6668C11.8333 12.8557 11.8973 13.0139 12.0253 13.1415C12.1529 13.2695 12.3111 13.3335 12.5 13.3335Z" fill="#1F2122"/>
</svg>
